<?xml version="1.0" standalone="no"?>
<!DOCTYPE svg PUBLIC "-//W3C//DTD SVG 20010904//EN"
 "http://www.w3.org/TR/2001/REC-SVG-20010904/DTD/svg10.dtd">
<svg version="1.0" xmlns="http://www.w3.org/2000/svg"
 width="700.000000pt" height="700.000000pt" viewBox="0 0 700.000000 700.000000"
 preserveAspectRatio="xMidYMid meet">
<metadata>
Created by potrace 1.11, written by Peter Selinger 2001-2013
</metadata>
<g transform="translate(0.000000,700.000000) scale(0.100000,-0.100000)"
fill="#000000" stroke="none">
<path d="M2314 6785 c-172 -44 -185 -57 -180 -187 3 -70 9 -104 22 -127 23
-40 44 -48 44 -17 0 42 20 82 51 100 55 33 166 203 157 242 -2 9 -26 6 -94
-11z"/>
<path d="M4545 6778 c22 -71 103 -187 156 -224 23 -16 42 -38 45 -53 3 -14 7
-36 10 -48 6 -32 19 -29 42 10 24 37 36 182 20 228 -14 42 -113 84 -243 105
-35 5 -36 4 -30 -18z"/>
<path d="M3168 6695 c-2 -2 -34 -6 -73 -9 -38 -4 -81 -8 -95 -10 -14 -2 -54
-6 -90 -10 -82 -10 -123 -16 -128 -21 -2 -2 -1 -13 3 -24 5 -17 45 -37 113
-57 8 -2 11 -11 7 -24 -5 -16 4 -24 54 -49 33 -17 69 -41 81 -53 21 -23 27
-72 10 -83 -31 -19 17 -59 84 -69 76 -12 83 -17 118 -77 l35 -59 27 40 c35 52
64 70 123 75 31 2 63 12 85 27 30 21 34 27 26 47 -13 35 14 67 80 98 31 14 64
29 72 33 8 4 18 20 22 36 5 20 26 43 63 70 30 21 55 41 55 44 0 21 -28 28
-125 33 -60 4 -137 11 -170 17 -139 25 -185 30 -277 29 -53 -1 -98 -3 -100 -4z
m312 -104 c30 -6 79 -18 108 -27 49 -14 53 -17 50 -42 -4 -34 -37 -50 -115
-58 -63 -7 -129 -35 -153 -67 -8 -11 -24 -45 -35 -76 -15 -41 -26 -56 -39 -56
-15 0 -23 15 -39 70 -24 88 -45 117 -94 132 -69 21 -154 63 -160 79 -11 29 7
35 152 49 39 4 71 9 73 10 8 7 202 -4 252 -14z m-292 -219 c2 -23 -2 -34 -18
-42 -30 -16 -71 11 -65 42 11 56 78 56 83 0z m290 6 c21 -21 14 -57 -13 -70
-22 -10 -29 -9 -46 8 -16 17 -18 25 -10 47 11 29 47 37 69 15z"/>
<path d="M850 6631 c0 -23 26 -68 59 -103 l35 -38 -47 0 c-46 0 -97 -19 -124
-46 -26 -26 -6 -131 34 -176 27 -31 93 -58 144 -58 35 0 54 7 88 31 80 60 127
40 72 -29 -16 -21 -32 -51 -35 -65 -5 -30 1 -32 79 -28 98 5 213 97 249 197
42 118 82 171 164 213 13 7 21 15 18 18 -3 3 -74 5 -159 4 l-154 -1 -44 35
c-55 44 -107 59 -168 48 -61 -10 -160 -10 -188 0 -14 5 -23 4 -23 -2z"/>
<path d="M5795 6620 c-22 -10 -50 -27 -62 -39 -36 -34 -59 -38 -218 -35 l-150
3 35 -27 c69 -53 127 -119 133 -150 12 -60 49 -125 101 -177 42 -43 62 -55
116 -69 36 -10 81 -16 100 -14 31 3 35 6 32 28 -2 14 -17 42 -33 62 -16 20
-29 44 -29 52 0 33 83 10 115 -32 14 -17 125 -18 157 -1 60 31 93 80 103 151
5 34 2 49 -12 67 -22 27 -87 50 -131 46 -35 -3 -35 -1 10 49 20 22 51 86 45
92 -2 2 -27 -1 -56 -7 -36 -8 -66 -8 -99 -1 -88 20 -116 20 -157 2z"/>
<path d="M2296 6527 c-14 -14 -31 -47 -37 -72 -14 -55 -45 -74 -116 -71 -24 0
-43 0 -43 -1 0 -1 11 -14 24 -28 28 -30 46 -91 67 -233 12 -79 18 -82 34 -21
l10 39 53 -36 c30 -20 77 -47 105 -60 61 -28 88 -57 208 -226 75 -105 98 -130
135 -147 24 -12 54 -21 66 -21 13 0 30 -5 38 -10 12 -8 13 -12 1 -19 -23 -15
-149 33 -202 77 -12 9 -50 61 -86 115 -82 123 -129 169 -201 196 -31 12 -64
29 -74 38 -16 14 -18 14 -24 -1 -4 -10 -4 -45 0 -78 l6 -60 -45 57 c-50 65
-55 78 -86 229 -21 103 -25 112 -65 151 -55 55 -163 131 -221 157 -67 30 -181
31 -242 2 -25 -12 -59 -36 -76 -54 l-30 -32 35 17 c54 28 128 28 186 1 84 -40
142 -118 274 -371 113 -217 172 -291 310 -382 122 -80 315 -131 511 -132 51
-1 57 -3 61 -24 4 -18 -2 -26 -23 -36 -44 -19 -121 -92 -136 -130 -14 -32 -13
-36 3 -48 27 -20 84 -33 113 -27 14 4 43 20 64 36 l37 29 9 -23 c11 -30 2 -41
-61 -68 -41 -17 -63 -21 -106 -16 -91 10 -119 36 -281 256 l-18 25 -18 -35
c-25 -49 -32 -158 -12 -197 44 -83 144 -129 266 -120 112 8 163 23 234 71 15
10 29 17 30 15 56 -76 102 -177 112 -239 10 -66 195 -390 259 -452 47 -46 48
-49 51 -113 1 -36 -1 -68 -5 -70 -4 -3 -25 -7 -46 -10 -22 -4 -47 -8 -56 -11
-9 -3 -25 -6 -35 -8 -89 -18 -104 -27 -125 -74 -11 -26 -22 -48 -23 -50 -2 -2
-179 -4 -394 -4 l-391 -1 0 -678 c0 -640 -1 -679 -17 -680 -89 -3 -102 -23
-158 -219 -25 -91 -48 -173 -51 -182 -5 -16 -20 -18 -134 -18 l-128 0 3 148
c5 211 15 257 101 438 150 317 246 617 270 844 8 72 7 261 -1 300 -2 14 -7 41
-10 60 -13 85 -48 201 -81 268 -39 80 -129 179 -183 202 -34 14 -34 12 -8 85
9 22 18 77 21 123 3 46 10 91 15 100 18 36 -6 92 -40 92 -30 0 -38 -31 -40
-152 -1 -128 -13 -165 -60 -199 -35 -25 -52 -28 -161 -31 -78 -3 -89 -1 -110
20 -22 20 -58 30 -58 17 0 -19 35 -68 63 -89 31 -24 38 -25 122 -20 50 3 99 7
110 8 30 4 110 -19 149 -44 20 -11 48 -38 65 -58 28 -36 71 -146 71 -183 0 -9
8 -46 17 -81 18 -68 25 -350 11 -438 -5 -25 -11 -63 -14 -85 -23 -160 -114
-446 -188 -590 -53 -103 -115 -243 -135 -305 -13 -42 -18 -99 -26 -284 -8
-185 -27 -230 -133 -308 -72 -53 -76 -58 -118 -148 -71 -151 -77 -160 -154
-222 -34 -27 -62 -40 -115 -51 -98 -20 -154 -14 -183 18 -32 37 -28 68 24 202
58 149 78 189 120 236 58 64 36 96 -37 55 -75 -41 -93 -75 -244 -468 -79 -204
-146 -374 -150 -378 -8 -9 -189 -61 -194 -57 -4 4 22 198 44 330 3 17 7 50 11
75 3 25 9 69 15 99 5 30 9 65 9 78 0 21 -2 22 -27 11 -16 -7 -31 -14 -34 -17
-4 -3 -14 -60 -24 -126 -9 -66 -18 -131 -20 -145 -4 -26 -24 -172 -31 -225
-14 -109 -13 -107 -62 -123 -33 -11 -33 -11 -28 16 6 28 23 146 31 217 6 45
24 175 31 218 3 16 13 95 24 175 29 213 23 198 114 282 396 367 667 718 786
1020 26 65 59 193 65 250 3 25 8 63 11 85 17 110 -1 284 -40 376 -19 46 -130
183 -192 238 -68 59 -175 110 -251 117 -53 6 -63 10 -63 26 0 27 45 68 75 68
14 0 42 -7 63 -16 26 -10 51 -13 82 -9 55 8 123 42 117 58 -2 7 -38 25 -80 41
-44 16 -77 34 -77 42 0 11 6 11 28 3 44 -18 231 -15 275 4 40 17 71 69 65 110
-3 20 -4 20 -33 -7 -44 -42 -69 -47 -174 -41 -139 8 -185 20 -221 61 -34 39
-41 70 -12 59 9 -4 45 -9 80 -12 53 -5 62 -3 62 11 0 9 -10 20 -22 25 -33 13
-116 89 -133 121 -8 16 -17 50 -20 76 -2 26 -7 49 -11 53 -11 11 -32 -31 -49
-99 -24 -97 -15 -175 31 -268 l36 -73 -44 -57 c-216 -286 -404 -695 -452 -982
-14 -88 -67 -435 -81 -540 -31 -225 -86 -511 -122 -630 -26 -89 -131 -329
-179 -413 -25 -43 -43 -81 -40 -85 16 -15 172 -1 252 23 27 8 53 15 57 15 7 0
4 -48 -8 -130 -5 -36 -12 -88 -30 -230 -9 -69 -18 -136 -20 -150 -9 -66 -15
-109 -20 -151 l-5 -46 193 59 c221 68 199 61 259 77 l46 13 61 166 c71 195 73
198 97 193 11 -3 69 -5 129 -6 l110 -1 5 -40 c5 -35 5 -79 1 -166 -2 -38 -50
-81 -120 -107 -52 -19 -65 -29 -87 -66 -14 -25 -44 -60 -67 -79 -38 -32 -41
-37 -32 -63 9 -23 17 -29 49 -31 36 -3 43 1 95 56 31 33 70 68 86 79 84 55
177 67 290 38 76 -20 246 -102 307 -149 54 -42 73 -46 65 -13 -3 12 -11 51
-17 87 -18 103 -20 105 -229 160 -100 26 -185 50 -188 54 -3 3 -8 62 -10 131
l-3 125 64 63 c48 47 73 83 105 151 49 103 91 148 192 206 123 72 166 87 239
84 36 -1 77 -3 92 -3 43 -2 83 -44 109 -116 16 -46 32 -73 55 -90 18 -14 36
-25 41 -25 16 -1 69 -76 87 -122 20 -54 100 -190 159 -268 224 -300 573 -597
862 -734 135 -64 119 -65 259 2 224 107 436 260 626 451 173 174 337 391 401
531 50 110 53 114 102 145 36 23 53 43 72 85 61 132 73 142 182 145 104 4 141
-7 251 -74 121 -73 161 -114 213 -218 30 -62 60 -104 106 -150 l64 -64 -3
-129 -3 -129 -60 -15 c-263 -69 -321 -87 -336 -105 -9 -12 -22 -51 -29 -88 -6
-38 -14 -78 -17 -91 -7 -31 14 -29 57 7 46 37 160 101 230 128 200 79 320 57
451 -82 29 -30 64 -58 78 -63 27 -10 71 1 71 17 0 5 3 16 6 25 4 10 -10 30
-40 57 -25 23 -46 47 -46 54 0 24 -59 73 -109 90 -71 23 -111 65 -113 118 -2
64 2 171 6 184 3 8 31 10 95 6 62 -4 101 -1 122 7 21 9 33 10 41 2 5 -5 38
-87 73 -182 35 -94 65 -173 67 -174 2 -2 28 -10 58 -19 30 -9 136 -42 235 -72
99 -30 186 -55 193 -55 8 0 11 7 8 18 -3 9 -10 61 -16 116 -7 54 -13 107 -15
117 -2 10 -6 46 -10 81 -3 35 -8 70 -10 78 -2 8 -7 44 -10 80 -4 36 -8 72 -10
80 -8 43 -15 130 -11 130 3 0 31 -7 63 -15 85 -22 145 -29 225 -26 32 1 32 3
-25 105 -54 99 -169 377 -181 442 -2 10 -11 46 -20 79 -8 33 -18 78 -21 100
-4 22 -10 58 -15 80 -5 22 -12 56 -15 75 -3 19 -10 60 -15 90 -5 30 -12 73
-15 95 -16 110 -36 244 -40 275 -3 19 -10 67 -16 105 -5 39 -16 111 -25 160
-8 50 -17 104 -20 120 -3 17 -18 71 -33 120 -101 319 -236 585 -410 808 l-45
59 26 46 c58 105 70 230 30 337 -20 57 -47 68 -48 20 -2 -82 -29 -125 -121
-195 -51 -39 -62 -51 -49 -56 18 -7 92 0 135 12 21 6 23 5 16 -17 -4 -13 -15
-32 -24 -43 -36 -41 -74 -50 -266 -60 -57 -3 -112 15 -132 44 -32 45 -44 7
-18 -56 21 -51 66 -66 190 -66 55 0 112 5 126 10 26 10 39 7 39 -9 0 -4 -17
-13 -37 -20 -129 -42 -146 -64 -72 -93 49 -20 120 -22 176 -5 32 10 48 10 68
1 23 -11 54 -56 44 -66 -2 -2 -27 -7 -54 -10 -131 -14 -252 -91 -361 -227 -88
-110 -120 -180 -132 -289 -27 -251 36 -525 179 -772 141 -245 365 -509 692
-816 61 -57 78 -80 82 -107 3 -19 7 -52 10 -73 3 -20 8 -55 11 -77 7 -61 44
-317 48 -340 2 -11 7 -47 11 -80 4 -32 8 -67 10 -76 2 -9 6 -40 10 -70 3 -30
8 -62 11 -71 5 -15 1 -16 -28 -6 -52 17 -47 3 -73 213 -3 22 -10 67 -15 100
-5 33 -12 83 -15 110 -3 28 -7 61 -10 75 -2 14 -7 45 -10 70 -7 50 -8 51 -48
68 l-28 12 5 -52 c7 -63 13 -102 19 -143 18 -105 58 -407 54 -411 -2 -2 -48
10 -102 28 l-97 33 -142 371 c-99 259 -152 383 -174 412 -31 39 -98 82 -127
82 -23 0 -18 -44 6 -66 12 -10 34 -37 49 -59 35 -51 130 -296 130 -335 0 -47
-36 -79 -95 -83 -142 -10 -282 70 -336 190 -74 167 -90 189 -199 272 -37 28
-74 83 -84 126 -4 16 -9 75 -12 130 -12 303 -13 308 -139 563 -108 220 -193
488 -221 692 -4 30 -9 66 -11 80 -5 36 -5 237 1 287 8 71 35 194 57 266 27 84
79 146 151 178 52 23 126 27 268 15 48 -4 85 17 117 65 22 33 24 42 12 49 -9
6 -20 3 -34 -10 -35 -33 -65 -38 -163 -29 -105 10 -122 16 -154 61 -20 29 -23
48 -28 166 -4 117 -7 135 -24 148 -15 11 -23 11 -34 2 -23 -19 -32 -56 -22
-83 6 -14 12 -60 16 -103 3 -42 14 -103 25 -135 11 -33 19 -60 17 -61 -2 -2
-24 -14 -49 -29 -79 -45 -148 -133 -188 -241 -26 -70 -56 -198 -65 -276 -8
-71 -9 -243 -2 -297 3 -24 8 -62 11 -85 11 -86 82 -351 114 -423 5 -11 26 -63
47 -115 21 -52 62 -147 92 -210 62 -131 81 -180 88 -230 3 -19 8 -42 11 -50 3
-8 7 -84 8 -167 l3 -153 -128 0 -129 0 -15 52 c-8 29 -27 96 -41 148 -49 175
-55 189 -85 205 -16 8 -40 15 -55 15 l-25 0 0 680 0 680 -411 -1 -412 -1 -51
50 c-29 27 -71 56 -98 66 -36 13 -49 24 -57 48 -16 46 -13 73 9 93 24 22 21
24 55 -49 27 -57 55 -79 114 -91 9 -2 52 -12 96 -23 130 -33 164 -40 168 -36
2 2 -6 70 -19 151 -12 82 -19 151 -16 155 4 4 36 0 72 -7 82 -18 130 -19 130
-2 0 6 -16 39 -36 71 -51 86 -109 203 -127 261 -13 41 -67 300 -67 322 0 3 8
0 18 -8 47 -40 156 -67 252 -63 143 5 240 92 240 214 0 40 -31 130 -45 130 -6
0 -38 -37 -70 -81 -83 -116 -109 -144 -160 -168 -101 -47 -249 -2 -253 77 l-1
24 18 -21 c31 -36 98 -54 153 -41 61 15 74 31 59 69 -30 70 -142 149 -227 159
-86 9 -42 17 104 18 307 2 505 70 675 233 50 47 108 137 192 296 86 164 155
273 197 311 75 67 180 85 260 43 20 -10 20 -8 -6 19 -48 51 -96 70 -184 70
-90 1 -113 -6 -207 -66 -89 -57 -166 -126 -182 -163 -6 -16 -21 -75 -33 -131
-28 -138 -25 -129 -76 -195 l-45 -58 4 60 c2 33 2 65 0 72 -3 8 -24 2 -66 -18
-34 -16 -67 -29 -73 -29 -20 0 -95 -84 -156 -175 -33 -49 -70 -101 -82 -113
-26 -30 -97 -66 -156 -80 -51 -12 -161 -7 -194 9 -40 21 -97 84 -131 144 -19
34 -73 112 -119 175 -81 109 -84 115 -65 128 27 18 59 86 61 125 1 37 -20 107
-32 107 -5 0 -11 -9 -15 -19 -10 -34 -46 -71 -86 -91 -52 -27 -53 -52 -1 -44
20 3 42 7 49 9 27 9 24 -20 -4 -45 -25 -23 -40 -27 -99 -30 -157 -6 -168 -5
-196 14 -35 24 -46 15 -24 -19 26 -40 59 -47 175 -41 92 5 102 4 91 -9 -7 -9
-32 -20 -56 -26 -24 -6 -44 -15 -44 -20 0 -16 77 -32 117 -24 21 5 44 9 52 11
17 3 64 -43 56 -56 -3 -6 -17 -10 -30 -10 -36 0 -132 -27 -182 -51 -70 -34
-130 -101 -149 -167 -28 -95 -5 -280 47 -385 74 -147 314 -389 516 -521 34
-23 43 -35 48 -69 4 -23 9 -51 11 -62 4 -21 8 -44 24 -135 16 -95 20 -114 24
-137 5 -23 -9 -30 -29 -15 -6 4 -33 74 -60 156 -40 120 -54 150 -69 152 -11 2
-23 1 -27 -2 -4 -2 14 -68 41 -147 35 -102 45 -143 36 -145 -7 -2 -36 5 -65
15 l-52 18 -67 150 c-98 217 -109 236 -158 253 -23 8 -49 12 -59 9 -15 -6 -14
-11 13 -41 34 -39 108 -169 117 -208 6 -24 3 -29 -21 -39 -36 -13 -117 -7
-164 14 -46 19 -87 65 -144 159 -68 115 -104 193 -132 288 -16 56 -45 118 -84
182 -62 102 -140 286 -170 403 -44 167 18 387 123 442 19 10 59 16 103 17 57
1 79 6 101 22 35 26 43 64 14 64 -11 0 -23 -4 -26 -10 -3 -5 -44 -10 -89 -10
-69 0 -88 4 -110 21 -50 39 -56 62 -70 246 -5 58 -11 73 -32 73 -19 0 -20 -23
-10 -189 7 -113 22 -153 63 -175 l27 -14 -31 -15 c-54 -28 -122 -158 -137
-259 -4 -27 -11 -48 -16 -48 -17 0 -74 66 -91 106 -27 60 -47 157 -54 259 -8
118 -19 155 -63 221 -34 50 -52 66 -52 46 0 -5 -19 -37 -42 -72 l-43 -64 -8
64 c-10 79 -25 113 -80 170 -69 74 -72 76 -101 47z m1621 -952 l25 -50 -34 39
c-35 42 -46 62 -47 86 -1 21 24 -12 56 -75z m26 -169 c49 -71 50 -98 1 -54
-20 18 -42 37 -50 41 -18 10 -19 79 -1 71 6 -2 29 -29 50 -58z m-3 -156 c39
-39 70 -75 70 -81 0 -14 -4 -12 -86 45 -63 44 -70 51 -66 77 2 16 6 29 8 29 2
0 36 -32 74 -70z m-32 -114 c78 -62 124 -107 117 -114 -2 -2 -48 24 -102 59
-82 53 -97 68 -95 87 2 12 6 22 8 22 3 0 35 -24 72 -54z m34 -185 c63 -53 82
-76 103 -124 14 -33 23 -62 21 -65 -6 -5 -139 89 -201 142 -109 94 -100 80
-85 125 l13 40 36 -27 c20 -15 71 -56 113 -91z m-411 -475 c22 2 28 -2 31 -24
10 -76 -18 -107 -72 -79 -22 11 -25 20 -26 64 0 48 1 51 20 44 12 -4 33 -6 47
-5z m29 -213 c27 -16 50 -30 50 -33 0 -3 -70 -5 -154 -5 -85 0 -152 3 -148 7
11 10 155 56 179 57 13 1 45 -11 73 -26z m155 -8 c37 -23 38 -24 14 -25 -15 0
-35 11 -49 25 -30 32 -16 32 35 0z m-448 -21 c-5 -4 -97 -13 -97 -9 0 3 17 13
38 24 34 18 38 18 49 4 7 -9 12 -17 10 -19z m-297 -386 l135 -3 -107 -79 c-60
-43 -108 -79 -108 -80 0 -1 18 -58 40 -126 21 -68 38 -125 37 -127 -2 -1 -48
31 -102 72 -55 41 -105 74 -111 75 -7 0 -54 -31 -105 -68 -52 -37 -100 -71
-106 -75 -7 -4 6 45 28 110 21 64 39 124 39 133 -1 8 -48 49 -106 90 l-104 75
136 5 136 5 34 110 c19 61 37 117 40 125 4 9 24 -38 48 -112 l41 -127 135 -3z
m564 120 l37 -118 137 0 136 0 -109 -80 c-61 -45 -109 -86 -108 -93 2 -7 20
-65 41 -129 44 -133 49 -131 -81 -34 -49 36 -94 66 -100 66 -7 0 -57 -34 -112
-74 -55 -41 -101 -73 -102 -72 -2 1 15 58 37 126 22 68 40 125 40 126 0 1 -33
26 -72 55 -40 30 -74 57 -76 61 -2 5 -9 8 -16 8 -7 0 -21 9 -31 20 -17 19 -16
19 116 22 l133 3 40 123 c21 67 42 119 46 115 4 -4 24 -61 44 -125z m913 -120
l135 -3 -106 -78 c-58 -43 -106 -81 -106 -85 0 -4 18 -61 39 -127 22 -66 39
-121 37 -122 -1 -2 -47 31 -102 72 -54 41 -104 75 -110 75 -7 0 -54 -31 -105
-68 -110 -79 -124 -88 -117 -76 16 27 78 245 73 254 -3 5 -52 43 -108 82
l-101 73 136 3 137 3 31 100 c54 174 47 172 93 27 l40 -127 134 -3z m-3801 19
c-1 -31 -14 -62 -44 -110 -23 -37 -44 -67 -46 -67 -11 0 20 93 51 152 19 37
37 68 39 68 1 0 2 -19 0 -43z m5733 -37 c30 -58 54 -130 43 -130 -4 0 -25 28
-46 61 -29 45 -40 74 -43 108 -3 52 1 49 46 -39z m-5715 -285 l5 -50 -79 -82
c-44 -46 -82 -83 -85 -83 -3 0 -5 16 -5 35 0 28 13 53 57 113 61 83 95 123 99
119 1 -1 5 -25 8 -52z m5683 38 c4 -10 9 -20 13 -23 3 -3 32 -40 63 -84 46
-64 57 -86 57 -118 0 -32 -2 -37 -12 -25 -7 7 -46 47 -86 89 l-73 75 7 51 c7
53 19 66 31 35z m-2754 -247 c45 -19 68 -58 72 -122 1 -30 5 -57 8 -60 3 -3
23 -8 44 -11 55 -7 105 -35 131 -74 19 -28 30 -34 64 -36 91 -6 156 -63 162
-144 2 -22 13 -36 50 -60 79 -53 121 -137 106 -214 -5 -23 1 -41 27 -78 18
-27 37 -64 42 -82 12 -43 5 -108 -14 -146 -14 -25 -14 -32 -1 -51 19 -31 28
-78 31 -167 3 -116 -37 -181 -113 -181 -43 0 -52 -23 -46 -120 6 -91 6 -237 0
-265 -3 -11 -5 -27 -5 -36 -1 -24 -94 -142 -124 -158 -22 -12 -34 -12 -67 -2
-49 14 -53 28 -46 142 21 314 19 349 -26 432 -18 35 -36 -2 -28 -57 4 -25 5
-100 3 -167 -3 -108 -7 -128 -28 -164 -33 -57 -49 -68 -101 -69 -56 -1 -90 31
-78 73 9 33 10 193 0 291 -8 92 -8 91 -30 165 -23 74 -23 158 -2 209 20 49 20
95 0 147 -17 41 -22 124 -15 234 2 33 3 69 3 81 -5 58 -96 88 -126 42 -21 -33
-25 -106 -10 -163 8 -27 16 -108 20 -180 6 -149 0 -170 -58 -197 -33 -16 -37
-23 -43 -65 -4 -27 -20 -71 -36 -100 -31 -57 -39 -107 -44 -283 -2 -116 1
-150 25 -292 16 -90 4 -147 -38 -174 -28 -19 -93 -14 -115 8 -35 35 -39 58
-52 298 -9 167 -13 198 -29 227 l-15 28 -2 -50 c0 -27 -2 -81 -4 -119 -2 -37
-1 -87 4 -110 4 -22 4 -56 0 -75 -15 -71 -107 -85 -156 -23 -31 39 -38 66 -47
189 -3 39 -10 91 -16 115 -5 24 -11 69 -13 101 -3 49 -9 63 -36 91 -18 19 -63
94 -100 167 -63 127 -68 134 -115 158 -58 30 -82 71 -72 124 7 36 45 77 72 77
7 0 18 9 24 20 6 11 8 20 5 20 -3 0 2 17 10 38 21 48 61 89 95 97 22 5 29 13
34 40 8 42 46 88 84 104 24 10 30 21 40 70 16 77 63 133 138 160 30 12 68 21
84 21 19 0 33 7 40 21 39 71 109 113 191 112 l56 0 -4 61 c-5 56 -3 64 22 95
44 52 103 65 168 37z m-2863 -41 c11 -35 11 -36 -42 -86 -74 -71 -238 -203
-244 -197 -13 13 23 66 91 135 42 42 96 102 122 134 25 32 49 56 54 54 4 -3
13 -21 19 -40z m5580 3 c53 -65 109 -127 166 -183 48 -47 71 -89 55 -100 -5
-2 -17 3 -27 13 -10 10 -53 45 -94 79 -41 34 -97 82 -124 108 l-49 47 13 39
c7 21 16 39 19 39 4 0 22 -19 41 -42z m-5490 -238 c0 -9 -30 -43 -67 -75 -36
-33 -74 -67 -83 -75 -30 -28 -221 -167 -267 -194 -8 -4 -13 -1 -13 9 0 8 89
104 198 213 l197 197 17 -30 c9 -16 17 -37 18 -45z m5460 -13 c47 -51 135
-138 197 -195 72 -67 110 -109 108 -120 -2 -9 -4 -19 -4 -22 -1 -3 -5 0 -9 5
-4 6 -33 28 -65 49 -83 54 -241 179 -302 239 l-53 51 16 43 c9 24 19 43 22 43
3 0 43 -42 90 -93z m-5375 -158 c31 -60 34 -73 23 -87 -105 -132 -341 -362
-546 -533 l-64 -52 18 39 c20 46 62 183 67 219 2 16 19 37 48 57 52 38 246
234 345 348 38 44 70 80 71 80 2 0 19 -32 38 -71z m5310 -44 c147 -163 283
-294 353 -341 2 -1 10 -34 18 -73 8 -39 24 -93 35 -119 42 -96 43 -96 -53 -15
-172 145 -414 379 -492 475 l-38 48 33 70 c18 39 35 69 39 68 3 -2 50 -52 105
-113z m-3895 -412 l-1 -288 -25 30 c-102 123 -112 243 -37 429 29 72 52 116
58 116 3 0 5 -129 5 -287z m2394 190 c46 -108 58 -161 58 -242 -1 -67 -27
-134 -78 -196 l-24 -30 0 278 c0 152 2 277 4 277 2 0 20 -39 40 -87z"/>
<path d="M3492 3254 c-44 -30 -19 -114 34 -114 11 0 30 7 42 16 45 31 18 114
-38 114 -9 0 -26 -7 -38 -16z"/>
<path d="M3300 3043 c-19 -10 -48 -37 -65 -60 -21 -30 -37 -42 -56 -42 -52 -2
-133 -33 -165 -65 -33 -33 -54 -88 -54 -141 0 -27 -6 -33 -44 -49 -53 -22 -78
-64 -75 -128 3 -87 -81 -188 -157 -188 -44 0 -58 -7 -67 -32 -7 -20 18 -54 53
-71 34 -17 68 -70 86 -136 31 -112 63 -155 121 -164 41 -7 68 13 96 71 29 59
27 90 -8 115 -54 40 -71 126 -35 184 23 39 42 49 97 52 46 3 83 -23 83 -59 0
-29 -35 -44 -62 -26 -15 11 -26 12 -40 5 -34 -18 -15 -65 34 -82 27 -10 87 12
104 38 23 36 11 125 -23 165 -22 27 -31 30 -80 30 -49 0 -58 -4 -84 -31 -16
-17 -29 -35 -29 -39 0 -14 -39 -18 -56 -5 -23 17 -13 89 17 121 50 53 205 76
255 38 64 -47 104 -142 99 -236 -4 -85 -61 -152 -140 -165 -32 -5 -35 -9 -35
-38 0 -17 -6 -52 -14 -77 -12 -43 -12 -46 11 -68 30 -29 103 -153 113 -194 11
-40 22 -181 25 -328 2 -116 11 -148 40 -148 22 0 45 36 45 69 0 18 -6 59 -14
90 -8 31 -14 63 -14 71 -5 154 -13 365 -16 399 -3 36 2 52 26 87 23 32 32 58
37 109 7 66 24 95 56 95 7 0 19 8 29 18 14 16 15 35 11 128 -3 60 -9 125 -15
144 -5 19 -10 69 -10 110 0 68 3 81 31 124 30 48 30 51 30 178 0 72 -2 132 -5
135 -15 16 -103 13 -136 -4z"/>
<path d="M3632 3048 c-8 -8 -12 -55 -12 -145 0 -130 1 -133 25 -149 13 -8 34
-36 46 -61 18 -38 20 -54 14 -101 -14 -105 -14 -190 1 -238 18 -62 18 -132 -2
-169 -17 -32 -16 -55 10 -205 8 -47 16 -170 17 -273 2 -103 7 -187 11 -187 3
0 16 13 28 30 24 34 30 96 33 326 2 104 6 145 16 158 11 13 12 32 5 89 -12
110 -9 217 8 258 24 56 58 89 90 89 23 0 28 -4 28 -26 0 -14 -10 -40 -22 -57
-44 -62 -47 -73 -43 -190 4 -117 3 -115 77 -277 16 -35 33 -84 38 -109 9 -49
6 -280 -5 -353 -4 -30 -3 -48 3 -48 18 0 69 70 82 113 15 51 15 316 0 367 -5
19 -10 105 -10 192 0 127 3 159 15 172 18 18 41 11 55 -15 6 -10 10 -64 10
-121 0 -93 2 -104 21 -116 27 -17 58 -6 65 23 10 40 -4 123 -32 188 -32 75
-33 98 -5 133 27 34 27 63 -1 103 -13 17 -36 49 -52 71 -28 39 -28 40 -12 80
14 35 14 45 2 74 -13 30 -67 81 -127 118 -21 13 -25 22 -21 52 8 70 -36 105
-137 110 -48 2 -55 6 -69 32 -28 55 -52 74 -97 74 -22 0 -46 -5 -53 -12z"/>
<path d="M2962 1898 l-43 -19 2 -67 c1 -37 5 -77 10 -89 4 -12 11 -64 14 -115
7 -101 25 -154 57 -164 27 -8 39 12 31 51 -4 16 -8 111 -8 210 -1 100 -6 188
-11 196 -8 14 -14 14 -52 -3z"/>
<path d="M4573 6488 c-64 -67 -83 -105 -91 -184 l-7 -63 -49 74 -49 74 -23
-32 c-52 -70 -74 -132 -79 -218 -16 -269 -65 -361 -232 -435 -46 -20 -82 -39
-80 -41 8 -7 96 -17 154 -16 102 1 132 23 245 177 132 179 135 182 214 222 38
20 83 47 101 60 43 32 49 31 57 -15 6 -38 22 -64 23 -38 0 12 9 69 19 132 11
63 37 141 55 161 27 29 24 33 -26 32 -58 -1 -91 22 -105 71 -11 43 -45 91 -64
91 -6 0 -35 -24 -63 -52z"/>
<path d="M560 6502 c-13 -10 -23 -33 -26 -57 -12 -85 80 -198 194 -238 42 -15
162 -38 162 -31 0 1 -20 14 -44 28 -66 39 -93 78 -123 177 -31 104 -59 139
-108 139 -18 0 -43 -8 -55 -18z"/>
<path d="M6289 6492 c-23 -20 -35 -46 -50 -102 -28 -105 -58 -152 -121 -190
l-53 -31 51 5 c167 20 304 129 308 246 1 58 -22 88 -73 95 -24 3 -39 -3 -62
-23z"/>
<path d="M1362 5984 c-26 -18 -30 -65 -7 -84 47 -39 155 -12 155 40 0 50 -98
79 -148 44z"/>
<path d="M5510 5993 c-20 -8 -39 -34 -40 -54 0 -26 36 -51 82 -56 36 -4 47 0
70 21 22 21 26 31 19 49 -14 38 -82 59 -131 40z"/>
<path d="M864 5909 c-31 -9 -53 -41 -47 -69 4 -19 37 -40 71 -46 30 -6 40 -18
83 -98 26 -49 33 -73 34 -130 2 -39 3 -73 4 -76 0 -3 186 -6 411 -6 406 0 410
0 410 21 2 120 10 170 35 221 15 31 32 57 39 59 6 1 29 8 52 14 56 15 73 50
41 85 -43 49 -139 35 -154 -23 -9 -34 -70 -87 -162 -141 -71 -42 -131 -56
-161 -40 -34 18 -57 76 -59 148 -1 19 -6 22 -45 22 l-43 0 -7 -46 c-22 -162
-147 -170 -312 -20 -34 31 -65 67 -68 81 -10 39 -67 60 -122 44z"/>
<path d="M5010 5909 c-66 -24 -58 -90 12 -110 24 -6 48 -13 54 -14 7 -2 24
-29 39 -59 25 -52 32 -93 34 -216 l1 -26 412 1 412 0 3 80 c2 67 8 90 34 143
37 71 44 79 83 86 64 12 86 69 41 104 -44 35 -145 9 -145 -37 0 -26 -107 -121
-173 -155 -118 -59 -179 -29 -207 101 l-11 48 -39 -3 c-36 -4 -40 -7 -41 -33
-2 -35 -2 -35 -18 -82 -16 -46 -55 -70 -103 -60 -84 16 -252 134 -262 184 -4
22 -15 34 -41 44 -39 17 -49 17 -85 4z"/>
<path d="M3007 5803 c-5 -8 -10 -50 -8 -69 1 -6 11 -11 24 -11 20 0 24 4 23
31 -1 44 -24 73 -39 49z"/>
<path d="M3024 5545 c-4 -9 -3 -30 2 -47 8 -26 15 -31 40 -32 l30 -1 -15 38
c-17 45 -48 67 -57 42z"/>
<path d="M1923 5482 c-31 -5 -45 -26 -54 -84 -5 -29 -14 -57 -21 -64 -7 -7
-57 -29 -111 -48 -54 -19 -118 -50 -142 -68 -55 -41 -94 -113 -102 -190 -3
-34 -11 -58 -18 -58 -6 0 -19 27 -30 61 -39 130 -111 187 -284 223 -120 24
-150 42 -152 90 -2 60 -21 87 -63 91 -49 6 -81 -89 -41 -119 12 -9 16 -20 12
-35 -6 -25 18 -45 68 -57 42 -10 127 -54 142 -73 17 -22 16 -61 -3 -82 -14
-16 -13 -19 15 -35 17 -10 31 -22 31 -26 0 -7 54 -39 65 -38 101 4 135 -1 163
-25 17 -14 42 -49 56 -77 l26 -51 15 36 c8 20 15 40 15 45 0 29 105 102 148
102 32 0 75 19 103 46 15 14 35 27 45 29 11 2 21 4 24 4 3 1 -5 9 -18 19 -13
10 -25 32 -28 49 -4 27 1 38 33 70 21 21 61 47 88 57 66 25 78 35 72 64 -3 14
2 41 10 60 24 58 -3 94 -64 84z m-257 -328 c30 -8 46 -47 34 -79 -20 -53 -90
-48 -109 7 -9 25 -7 33 14 54 26 26 29 27 61 18z m-370 -35 c37 -31 -3 -117
-49 -103 -53 15 -69 63 -33 98 25 26 55 28 82 5z"/>
<path d="M5013 5480 c-28 -11 -36 -40 -22 -76 6 -16 11 -45 10 -66 -2 -35 0
-37 55 -58 72 -26 110 -53 130 -91 17 -34 12 -61 -18 -88 -20 -19 -20 -19 4
-26 12 -4 38 -21 56 -36 18 -16 36 -29 40 -30 7 -1 20 -3 80 -14 45 -8 107
-67 128 -121 9 -24 19 -44 23 -44 3 0 17 20 30 46 39 73 71 94 145 94 65 0
126 15 126 31 0 5 16 19 35 30 l35 21 -20 25 c-42 53 16 110 153 149 54 16 57
18 57 49 0 19 8 39 19 49 33 30 0 116 -45 116 -26 0 -56 -36 -61 -75 -7 -60
-26 -81 -80 -93 -26 -6 -82 -18 -123 -27 -122 -27 -192 -89 -235 -206 -12 -35
-27 -65 -32 -66 -6 -2 -13 22 -16 53 -8 77 -47 152 -101 192 -25 18 -88 49
-142 67 -111 40 -121 46 -128 86 -3 16 -9 43 -12 59 -4 20 -16 35 -34 45 -16
8 -30 15 -32 14 -2 0 -13 -4 -25 -9z m345 -347 c27 -36 1 -93 -42 -93 -32 0
-66 28 -66 54 0 35 37 69 69 61 14 -3 32 -13 39 -22z m390 -15 c17 -14 15 -63
-4 -82 -19 -19 -68 -21 -82 -3 -24 30 -23 56 3 82 26 26 52 27 83 3z"/>
<path d="M3120 5277 c0 -40 89 -137 188 -206 56 -39 46 -17 -20 47 -35 34 -79
86 -98 117 -33 51 -70 74 -70 42z"/>
<path d="M1790 4585 c-11 -13 -10 -20 8 -43 12 -15 29 -44 38 -64 13 -30 19
-36 33 -29 10 6 24 5 35 -1 60 -34 6 94 -56 132 -40 24 -42 24 -58 5z"/>
<path d="M5133 4580 c-36 -21 -57 -50 -74 -98 -12 -35 -6 -53 12 -35 8 8 20 8
34 3 20 -8 25 -4 36 23 7 18 21 42 31 53 23 26 29 56 14 66 -15 11 -17 10 -53
-12z"/>
<path d="M1474 4563 c-14 -14 -13 -18 13 -47 16 -17 35 -44 43 -61 10 -22 14
-26 17 -13 6 23 32 27 66 11 15 -7 27 -9 27 -4 0 5 -12 24 -27 43 -59 71 -112
98 -139 71z"/>
<path d="M5454 4567 c-48 -28 -114 -97 -114 -119 0 -5 14 -1 32 8 31 16 32 16
49 -5 l18 -22 17 33 c9 18 25 43 36 55 37 40 8 77 -38 50z"/>
<path d="M1657 4192 c-13 -14 -17 -93 -8 -142 1 -4 16 -6 34 -6 l33 0 -2 56
c-2 92 -25 128 -57 92z"/>
<path d="M1926 4194 c-11 -11 -16 -35 -16 -83 l0 -68 35 1 35 1 0 72 c0 61 -3
74 -19 83 -15 7 -23 6 -35 -6z"/>
<path d="M5010 4191 c-5 -11 -10 -48 -10 -83 l0 -63 35 0 35 0 0 67 c0 47 -5
71 -16 82 -20 21 -31 20 -44 -3z"/>
<path d="M5286 4197 c-11 -8 -17 -34 -20 -82 l-5 -70 35 0 c19 0 34 5 35 10
11 103 8 140 -15 148 -8 3 -21 0 -30 -6z"/>
<path d="M5040 3725 c-6 -17 -4 -45 7 -89 14 -58 18 -64 34 -56 11 7 27 7 43
0 31 -12 32 -13 -2 79 -20 53 -34 76 -50 82 -19 7 -24 4 -32 -16z"/>
<path d="M1885 3730 c-5 -7 -55 -149 -55 -154 0 -1 19 -1 42 -1 l43 0 17 64
c12 45 14 70 7 83 -10 19 -44 24 -54 8z"/>
<path d="M1744 3252 c-7 -4 -25 -35 -42 -69 -57 -118 -114 -199 -225 -318 -36
-38 -61 -72 -56 -73 19 -7 169 123 244 212 66 77 125 182 125 222 0 12 -7 25
-16 28 -19 7 -16 7 -30 -2z"/>
<path d="M5203 3253 c-45 -18 31 -164 152 -295 74 -79 215 -193 215 -174 0 3
-30 38 -66 78 -101 111 -168 204 -215 298 -48 97 -56 106 -86 93z"/>
<path d="M232 927 c5 -11 37 -60 69 -109 32 -50 59 -94 59 -99 0 -5 -39 -53
-87 -107 -48 -53 -92 -104 -99 -112 -11 -13 75 -15 769 -14 430 1 789 2 797 3
13 1 15 26 15 161 l-1 160 123 0 c68 0 123 3 124 8 5 44 2 115 -6 121 -5 5
-407 8 -892 8 -875 0 -882 0 -871 -20z"/>
<path d="M4960 878 l0 -68 125 0 125 0 2 -162 3 -163 785 -1 c432 0 788 2 793
4 4 2 -38 53 -93 113 -115 125 -113 99 -21 239 31 47 56 90 56 95 0 7 -303 10
-887 10 l-888 1 0 -68z"/>
<path d="M1849 716 c-1 -1 -2 -103 -3 -229 l-1 -227 1643 0 1642 0 0 228 0
229 -1640 0 c-902 0 -1640 -1 -1641 -1z"/>
</g>
</svg>
